<?xml version="1.0" encoding="utf-8"?>
<!-- Generator: Adobe Illustrator 25.2.1, SVG Export Plug-In . SVG Version: 6.00 Build 0)  -->
<svg version="1.1" id="Layer_1" xmlns="http://www.w3.org/2000/svg" xmlns:xlink="http://www.w3.org/1999/xlink" x="0px" y="0px"
	 viewBox="0 0 630.4 183.4" style="enable-background:new 0 0 630.4 183.4;" xml:space="preserve">
<style type="text/css">
	.st0{fill:#528917;}
	.st1{fill:#151011;}
	.st2{fill:#E89D00;}
</style>
<path class="st0" d="M79.4,37.3l7,6.8l9.1,9.2c4.1,4.9,5.6,12.1,3.1,18.2c-0.8,1.8-1.7,3.6-3.1,5.2L75.1,97H75
	c-1.1-17.4-1.8-35.5-3.1-53h-0.1c-0.3,2.4-0.3,4.8-0.5,7.3L70.9,59c-0.3,6.2-0.8,12.1-1,18.2l-0.5,9.7l-0.6,9.9h-0.3L50.6,78.9
	C45.3,74.2,43,66.8,45,60c0.9-3.7,3.3-6.7,6.4-9.3l9.3-9.4l10.5-10.4c0.2-0.3,0.7-1.1,1.1-0.7L79.4,37.3z"/>
<path class="st0" d="M122.5,80.3l7.6,7.6l13.7,13.7l-0.2,0.4l-23.5,23.5c-4.7,4.1-12.3,5.3-18.3,2.7c-1.7-0.8-3.3-1.6-4.8-3
	l-11.2-11.1l-8.7-8.7v-0.1l4.1-0.2l7.3-0.5c5.7-0.3,11.4-0.8,17.1-1.1l11.4-0.7l8.9-0.6c1.2-0.2,2.6,0,3.7-0.4
	c-4.3-0.4-8.8-0.6-13.2-0.8l-15.6-0.8l-13.3-0.7c-3.5-0.3-7.2-0.2-10.6-0.5v-0.1l19.4-19.3c4.8-5,12.9-6.8,19.5-4
	C118.3,76.6,120.6,78.3,122.5,80.3"/>
<path class="st0" d="M47.4,79.2l9.3,9.4L67,98.9c-2.2,0.3-4.7,0.3-7.1,0.5l-13.2,0.7c-4.3,0.2-8.5,0.5-12.7,0.7l-9.6,0.5
	c-0.8,0.1-1.6,0.1-2.5,0.1l-8,0.5c-0.1,0.1-0.2,0-0.2,0.2l0.5,0.1l8,0.5l9.7,0.5c6.3,0.4,12.8,0.8,19.1,1.1l9.8,0.5l6,0.4l-0.1,0.2
	l-19.9,19.9c-4.8,4.2-12.2,5.6-18.2,3.2c-4.2-1.4-7-5.1-10.1-8l-5.8-5.8L0.2,102.3L0,102c1.7-1.7,3.2-3.1,4.7-4.8l19.1-18.9
	c4.7-4.1,12.6-5.2,18.4-2.5C44.1,76.6,45.8,77.8,47.4,79.2"/>
<path class="st0" d="M95.6,127.4c3.5,4.5,5.1,11.1,3,16.8l-16.1-17.8l-7.8-8.5c-0.6-0.7-0.1-2.1-0.2-3c0.2-2.6,0.4-5.3,0.6-7.9h0.1
	L95.6,127.4z"/>
<path class="st0" d="M69.4,117.7l-4.4,5l-19.6,21.6h-0.2c-2.2-6.3-0.3-13.3,4.2-17.9L68,107.9l0.9-0.8
	C69.1,110.5,69.2,114.1,69.4,117.7"/>
<path class="st0" d="M98.2,145.3c-0.9,3.1-3.1,5.5-5.7,7.7l-6-6.8l-0.7-0.7l-9.6-10.8l-2.7-3c0.2-3.5,0.3-7.1,0.7-10.5L98.2,145.3z"
	/>
<path class="st0" d="M70.1,131.8l-18.7,21.5l-0.3-0.1c-2.5-2.2-4.5-4.7-5.6-7.6l0.4-0.5l10.5-10.6l4.3-4.3l8.9-8.9
	C69.8,124.7,69.9,128.3,70.1,131.8"/>
<path class="st0" d="M91.5,153.4c0.1,0.2,0.2,0.2,0.3,0.4l-0.4,0.5l-6.4,6.4l-11.8-14.2c-0.8-0.5-0.3-1.5-0.4-2.1
	c0.2-3.1,0.4-6,0.5-9L76,138L91.5,153.4z"/>
<path class="st0" d="M70.9,145.9l-4.7,5.7l-7.3,8.9c-0.1,0.2-0.3,0.1-0.4,0.1c-1.8-2-4.4-4.3-6.4-6.5l0.1-0.2l6.5-6.6l11.7-11.9
	l0.1,2.3L70.9,145.9z"/>
<path class="st0" d="M71.8,160.5c0.3,0,0-0.4,0.2-0.5c0.1-3.4,0.4-7.1,0.7-10.6l11.7,11.7v0.2c-1.4,1.5-3.1,3.1-4.5,4.6l-7.9,7.9
	c-0.6-0.1-1-0.8-1.5-1.3l-10.3-10.3c-0.2-0.3-0.6-0.5-0.7-0.9l11.6-11.9C71.3,153.1,71.5,156.8,71.8,160.5"/>
<path class="st0" d="M83.3,170.2c0-1.4,1.1-2.5,2.5-2.5c1.3,0,2.5,1,2.5,2.5c0,1.4-1.1,2.5-2.5,2.5
	C84.5,172.6,83.3,171.6,83.3,170.2 M85.8,172.2c1.1,0,2-0.9,2-2.1c0-1.2-0.9-2.1-2-2.1s-2,0.9-2,2.1S84.7,172.2,85.8,172.2
	 M85.3,171.6h-0.4v-2.9H86c0.7,0,1,0.2,1,0.8c0,0.5-0.3,0.7-0.7,0.8l0.8,1.3h-0.5l-0.7-1.2h-0.5v1.2H85.3z M85.8,170
	c0.4,0,0.7,0,0.7-0.5c0-0.4-0.3-0.4-0.6-0.4h-0.6v0.9H85.8z"/>
<path class="st1" d="M211.7,116.2c0,1.7-0.1,1.8-0.8,2.2c-4,2.1-10,2.8-14.8,2.8c-15.1,0-28.4-7.1-28.4-24.2
	c0-9.9,5.1-16.8,10.7-20.2c5.9-3.6,11.4-4,16.6-4c4.2,0,9.7,0.7,10.9,1c1.3,0.2,3.4,0.6,4.9,0.7c0.7,0.1,0.9,0.3,0.9,0.7
	c0,0.7-0.4,2.4-0.4,10.1c0,1-0.2,1.3-0.7,1.3c-0.4,0-0.6-0.3-0.6-0.8c-0.2-1.4-0.5-3.4-2.1-5.1c-1.8-2-6.8-4.8-13.7-4.8
	c-3.4,0-7.9,0.2-12.2,3.8c-3.4,2.9-5.7,7.5-5.7,15.1c0,13.3,8.4,23.2,21.4,23.2c1.6,0,3.8,0,5.2-0.7c0.9-0.4,1.2-1.2,1.2-2.3v-5.8
	c0-3.1,0-5.4-0.1-7.3c-0.1-2.1-0.6-3.1-2.6-3.5c-0.5-0.1-1.5-0.2-2.4-0.2c-0.6,0-0.9-0.1-0.9-0.5c0-0.5,0.4-0.6,1.3-0.6
	c3.2,0,7.1,0.2,8.9,0.2c1.9,0,5.2-0.2,7.2-0.2c0.8,0,1.2,0.1,1.2,0.6c0,0.4-0.4,0.5-0.8,0.5c-0.5,0-0.9,0.1-1.7,0.2
	c-1.7,0.3-2.3,1.4-2.3,3.5c-0.1,1.8-0.1,4.3-0.1,7.4v6.9H211.7z"/>
<path class="st1" d="M219.3,100.4c0-8.9,6.3-20.5,22.7-20.5c13.7,0,22.1,7.6,22.1,19.6s-8.7,21.4-22.7,21.4
	C225.7,121,219.3,109.7,219.3,100.4 M256.1,101.4c0-11.6-7-18.7-15.7-18.7c-6,0-13.1,3.2-13.1,16.1c0,10.8,6.2,19.3,16.4,19.3
	C247.5,118.1,256.1,116.3,256.1,101.4"/>
<path class="st1" d="M280.3,105.1c0,6.7,0,10,1.2,11c0.9,0.8,3,1.1,7.2,1.1c2.9,0,5-0.1,6.3-1.5c0.7-0.7,1.2-2.2,1.4-3.1
	c0.1-0.5,0.2-0.8,0.6-0.8s0.5,0.6,0.5,1.2s-0.4,4.5-0.8,6c-0.4,1.2-0.6,1.4-3.4,1.4c-3.9,0-7-0.1-9.7-0.2c-2.7-0.1-5-0.1-7.2-0.1
	c-0.6,0-1.8,0.1-3.1,0.1c-1.3,0.1-2.6,0.1-3.8,0.1c-0.7,0-1-0.2-1-0.6c0-0.2,0.2-0.6,0.9-0.6c0.8,0,1.4-0.1,1.9-0.2
	c1.1-0.2,1.4-1.2,1.6-2.8c0.2-2.2,0.2-6.3,0.2-11.2v-9.2c0-8,0-9.4-0.1-11.1c-0.1-1.8-0.6-2.3-2.3-2.8c-0.4-0.1-1.1-0.2-1.8-0.2
	c-0.6,0-0.9-0.2-0.9-0.6s0.4-0.5,1.2-0.5c2.5,0,6,0.1,7.4,0.1c1.3,0,5.7-0.1,7.8-0.1c0.8,0,1.2,0.1,1.2,0.5s-0.3,0.6-1,0.6
	c-0.6,0-1.5,0.1-2.1,0.2c-1.5,0.2-1.9,1-2,2.8c-0.1,1.7-0.1,3.1-0.1,11.1v9.4H280.3z"/>
<path class="st1" d="M306.3,95.8c0-7.9,0-9.4-0.1-11.1c-0.1-1.8-0.6-2.3-2.3-2.8c-0.4-0.1-1.4-0.2-2.2-0.2c-0.6,0-0.9-0.2-0.9-0.6
	s0.4-0.5,1.2-0.5c2.8,0,6.3,0.1,7.8,0.1c1.7,0,5.5-0.1,8.8-0.1c6.8,0,15.9,0,21.8,6c2.7,2.7,5.1,7.1,5.1,13.3
	c0,6.6-2.8,11.6-5.9,14.6c-2.5,2.5-8.2,6.2-18.2,6.2c-2,0-4.3-0.2-6.5-0.3c-2.2-0.2-4.1-0.3-5.5-0.3c-0.6,0-1.8,0.1-3.1,0.1
	c-1.3,0.1-2.6,0.1-3.8,0.1c-0.7,0-1-0.2-1-0.6c0-0.2,0.2-0.6,0.9-0.6c0.8,0,1.4-0.1,1.9-0.2c1.1-0.2,1.4-1.2,1.6-2.8
	c0.2-2.2,0.2-6.3,0.2-11.2v-9.1H306.3z M313.6,101.6c0,5.5,0.1,9.6,0.1,10.6c0.1,1.3,0.2,3.1,0.6,3.7c0.7,1,2.8,2.1,7.1,2.1
	c4.9,0,8.6-0.9,11.8-3.6c3.5-2.9,4.6-7.6,4.6-13c0-6.7-2.6-11-5-13.1c-5-4.4-10.9-5-15.1-5c-1.1,0-2.9,0.1-3.3,0.4
	c-0.5,0.2-0.7,0.4-0.7,1c-0.1,1.8-0.1,6.1-0.1,10.2V101.6z"/>
<path class="st1" d="M355,95.8c0-8,0-9.4-0.1-11.1c-0.1-1.8-0.6-2.3-2.3-2.8c-0.4-0.1-1.4-0.2-2.2-0.2c-0.6,0-0.9-0.2-0.9-0.6
	s0.4-0.5,1.2-0.5c2.8,0,6.3,0.1,7.8,0.1c1.7,0,13.7,0.1,14.8,0c1-0.1,1.8-0.2,2.3-0.3c0.3-0.1,0.6-0.2,0.9-0.2s0.4,0.2,0.4,0.5
	c0,0.4-0.3,1-0.4,3.4c-0.1,0.6-0.2,2.8-0.3,3.4c-0.1,0.2-0.2,0.9-0.6,0.9s-0.4-0.2-0.4-0.7c0-0.4-0.1-1.3-0.4-1.9
	c-0.4-0.9-0.9-1.7-3.6-1.9c-0.9-0.1-7.4-0.2-8.5-0.2c-0.2,0-0.4,0.2-0.4,0.5v12.9c0,0.3,0.1,0.6,0.4,0.6c1.2,0,8.2,0,9.5-0.1
	s2.1-0.2,2.6-0.8c0.4-0.4,0.6-0.7,0.9-0.7c0.2,0,0.4,0.2,0.4,0.6c0,0.3-0.1,1.2-0.4,3.8c-0.1,1-0.2,3.1-0.2,3.5s-0.1,1.2-0.6,1.2
	c-0.4,0-0.5-0.2-0.5-0.4c-0.1-0.6-0.1-1.2-0.2-1.9c-0.3-1-1-1.8-3-2c-1-0.1-7.1-0.2-8.5-0.2c-0.2,0-0.3,0.2-0.3,0.6v4.2
	c0,1.8-0.1,6.2,0,7.8c0.1,3.6,1.8,4.4,7.3,4.4c1.4,0,3.7-0.1,5.1-0.7s2-1.7,2.3-3.9c0.1-0.6,0.2-0.8,0.6-0.8s0.5,0.7,0.5,1.2
	c0,1.2-0.4,4.7-0.7,5.8c-0.4,1.4-0.9,1.4-2.9,1.4c-4.1,0-7.3-0.1-10-0.2c-2.6-0.1-4.7-0.1-6.3-0.1c-0.6,0-1.8,0.1-3.1,0.1
	c-1.3,0.1-2.6,0.1-3.8,0.1c-0.7,0-1-0.2-1-0.6c0-0.2,0.2-0.6,0.9-0.6c0.8,0,1.4-0.1,1.9-0.2c1.1-0.2,1.4-1.2,1.6-2.8
	c0.2-2.2,0.2-6.3,0.2-11.2L355,95.8L355,95.8z"/>
<path class="st1" d="M392,113.1c0.1,4.1,0.8,5.3,1.8,5.7c0.9,0.3,2,0.4,2.8,0.4c0.6,0,0.9,0.2,0.9,0.6c0,0.4-0.5,0.6-1.2,0.6
	c-3.5,0-6-0.2-7-0.2c-0.5,0-3.1,0.2-5.8,0.2c-0.7,0-1.2-0.1-1.2-0.6c0-0.3,0.4-0.6,0.9-0.6c0.7,0,1.7-0.1,2.5-0.2
	c1.4-0.4,1.6-1.8,1.7-6.3l0.5-31.1c0-1,0.4-1.8,0.9-1.8c0.7,0,1.4,0.8,2.3,1.7c0.7,0.7,8.8,9,16.7,16.7c3.7,3.6,10.9,11,11.7,11.8
	h0.2l-0.6-23.3c-0.1-3.2-0.6-4.1-1.8-4.6c-0.8-0.3-2.1-0.3-2.8-0.3c-0.7,0-0.9-0.2-0.9-0.6s0.6-0.5,1.4-0.5c2.8,0,5.7,0.1,6.9,0.1
	c0.6,0,2.6-0.1,5.3-0.1c0.7,0,1.2,0.1,1.2,0.5c0,0.3-0.3,0.6-0.9,0.6s-1,0-1.7,0.2c-1.5,0.4-1.9,1.4-2,4.3l-0.6,33
	c0,1.2-0.4,1.7-0.9,1.7c-0.9,0-1.7-0.6-2.2-1.1c-3.4-3.1-10.2-9.6-15.8-15.1c-5.9-5.7-11.6-12-12.7-12.9h-0.2L392,113.1z"/>
<path class="st1" d="M454.6,119.5c-1-0.4-1.2-0.7-1.2-2.1c0-3.4,0.2-7.1,0.3-8.1c0.1-0.9,0.2-1.6,0.7-1.6c0.6,0,0.6,0.6,0.6,1
	c0,0.8,0.2,2.1,0.6,3.1c1.4,4.6,5,6.2,8.8,6.2c5.5,0,8.2-3.8,8.2-7c0-3-0.9-5.9-6-9.9l-2.8-2.2c-6.8-5.3-9.1-9.6-9.1-14.6
	c0-6.8,5.7-11.6,14.2-11.6c4,0,6.6,0.6,8.2,1c0.6,0.1,0.9,0.3,0.9,0.7c0,0.8-0.2,2.6-0.2,7.4c0,1.4-0.2,1.8-0.7,1.8
	c-0.4,0-0.6-0.4-0.6-1.1c0-0.6-0.3-2.5-1.6-4.1c-0.9-1.2-2.7-3-6.7-3c-4.6,0-7.3,2.6-7.3,6.3c0,2.8,1.4,5,6.5,8.9l1.7,1.3
	c7.4,5.6,10.1,9.9,10.1,15.7c0,3.6-1.4,7.8-5.8,10.7c-3.1,2-6.5,2.5-9.8,2.5C460,121.1,457.2,120.7,454.6,119.5"/>
<path class="st1" d="M497.9,83.9l-8.1,0.2c-3.1,0.1-4.4,0.4-5.2,1.6c-0.6,0.7-0.8,1.4-0.9,1.8c-0.1,0.4-0.2,0.7-0.6,0.7
	c-0.4,0-0.5-0.3-0.5-0.9c0-0.9,1-5.9,1.2-6.3c0.1-0.7,0.3-1,0.6-1c0.4,0,1,0.4,2.3,0.6c1.6,0.2,3.6,0.2,5.4,0.2h22
	c1.7,0,2.9-0.1,3.7-0.2c0.9-0.1,1.3-0.2,1.5-0.2c0.4,0,0.4,0.3,0.4,1.1c0,1.1-0.1,5-0.1,6.3c-0.1,0.6-0.2,0.9-0.5,0.9
	c-0.4,0-0.6-0.2-0.6-1l-0.1-0.6c-0.1-1.4-1.5-3-6.4-3l-6.8-0.1v21.2c0,4.8,0.1,8.9,0.3,11.2c0.2,1.5,0.5,2.5,2.1,2.7
	c0.7,0.1,2,0.2,2.8,0.2c0.6,0,0.9,0.3,0.9,0.6c0,0.4-0.4,0.6-1,0.6c-3.6,0-7.2-0.2-8.7-0.2c-1.2,0-4.9,0.2-7.1,0.2
	c-0.7,0-1-0.2-1-0.6c0-0.2,0.2-0.6,0.9-0.6c0.8,0,1.5-0.1,1.9-0.2c1.1-0.2,1.4-1.2,1.6-2.8c0.2-2.2,0.2-6.3,0.2-11.2V83.9H497.9z"/>
<path class="st1" d="M528.6,107.1c-0.3,0-0.4,0.1-0.5,0.4l-2.9,7c-0.6,1.3-0.8,2.6-0.8,3.2c0,0.9,0.5,1.5,2.2,1.5h0.8
	c0.7,0,0.8,0.2,0.8,0.6c0,0.4-0.3,0.6-0.9,0.6c-1.8,0-4.3-0.2-6-0.2c-0.6,0-3.4,0.2-6.3,0.2c-0.7,0-1-0.1-1-0.6
	c0-0.3,0.2-0.6,0.6-0.6c0.5,0,1.1-0.1,1.6-0.1c2.5-0.4,3.4-2,4.5-4.6l14.2-33c0.6-1.5,1-2.1,1.6-2.1c0.8,0,1,0.5,1.6,1.7
	c1.3,2.9,10.3,24.3,13.8,32.3c2.1,4.7,3.6,5.4,4.6,5.6c0.8,0.1,1.4,0.2,2,0.2c0.5,0,0.7,0.2,0.7,0.6c0,0.4-0.3,0.6-2.3,0.6
	c-1.9,0-5.8,0-10.4-0.1c-1-0.1-1.6-0.1-1.6-0.4c0-0.3,0.1-0.5,0.7-0.6c0.4-0.1,0.7-0.6,0.5-1.2l-4.2-10.5c-0.1-0.3-0.3-0.4-0.6-0.4
	h-12.7V107.1z M540.1,104.2c0.2,0,0.3-0.1,0.2-0.3l-5.1-13.3c-0.1-0.2-0.1-0.5-0.2-0.5c-0.2,0-0.2,0.3-0.3,0.5l-5.2,13.3
	c-0.1,0.2,0,0.4,0.2,0.4L540.1,104.2L540.1,104.2z"/>
<path class="st1" d="M568.3,83.9l-8.1,0.2c-3.1,0.1-4.4,0.4-5.2,1.6c-0.6,0.7-0.8,1.4-0.9,1.8c-0.1,0.4-0.2,0.7-0.6,0.7
	c-0.4,0-0.5-0.3-0.5-0.9c0-0.9,1-5.9,1.2-6.3c0.1-0.7,0.3-1,0.6-1c0.4,0,1,0.4,2.3,0.6c1.6,0.2,3.6,0.2,5.4,0.2h22
	c1.7,0,2.9-0.1,3.7-0.2c0.9-0.1,1.3-0.2,1.5-0.2c0.4,0,0.4,0.3,0.4,1.1c0,1.1-0.1,5-0.1,6.3c-0.1,0.6-0.2,0.9-0.5,0.9
	c-0.4,0-0.6-0.2-0.6-1l-0.1-0.6c-0.1-1.4-1.5-3-6.4-3l-6.8-0.1v21.2c0,4.8,0.1,8.9,0.3,11.2c0.2,1.5,0.5,2.5,2.1,2.7
	c0.7,0.1,2,0.2,2.8,0.2c0.6,0,0.9,0.3,0.9,0.6c0,0.4-0.4,0.6-1,0.6c-3.6,0-7.2-0.2-8.7-0.2c-1.2,0-4.9,0.2-7.1,0.2
	c-0.7,0-1-0.2-1-0.6c0-0.2,0.2-0.6,0.9-0.6c0.8,0,1.5-0.1,1.9-0.2c1.1-0.2,1.4-1.2,1.6-2.8c0.2-2.2,0.2-6.3,0.2-11.2V83.9H568.3z"/>
<path class="st1" d="M599.5,95.8c0-8,0-9.4-0.1-11.1c-0.1-1.8-0.6-2.3-2.3-2.8c-0.4-0.1-1.4-0.2-2.2-0.2c-0.6,0-0.9-0.2-0.9-0.6
	s0.4-0.5,1.2-0.5c2.8,0,6.3,0.1,7.8,0.1c1.7,0,13.7,0.1,14.8,0c1-0.1,1.8-0.2,2.3-0.3c0.3-0.1,0.6-0.2,0.9-0.2
	c0.3,0,0.4,0.2,0.4,0.5c0,0.4-0.3,1-0.4,3.4c-0.1,0.6-0.2,2.8-0.3,3.4c-0.1,0.2-0.2,0.9-0.6,0.9c-0.4,0-0.4-0.2-0.4-0.7
	c0-0.4-0.1-1.3-0.4-1.9c-0.4-0.9-0.9-1.7-3.6-1.9c-0.9-0.1-7.4-0.2-8.5-0.2c-0.2,0-0.4,0.2-0.4,0.5v12.9c0,0.3,0.1,0.6,0.4,0.6
	c1.2,0,8.2,0,9.5-0.1s2.1-0.2,2.6-0.8c0.4-0.4,0.6-0.7,0.9-0.7c0.2,0,0.4,0.2,0.4,0.6c0,0.3-0.1,1.2-0.4,3.8c-0.1,1-0.2,3.1-0.2,3.5
	s-0.1,1.2-0.6,1.2c-0.4,0-0.5-0.2-0.5-0.4c-0.1-0.6-0.1-1.2-0.2-1.9c-0.3-1-1-1.8-3-2c-1-0.1-7.1-0.2-8.5-0.2
	c-0.2,0-0.3,0.2-0.3,0.6v4.2c0,1.8-0.1,6.2,0,7.8c0.1,3.6,1.8,4.4,7.3,4.4c1.4,0,3.7-0.1,5.1-0.7c1.4-0.6,2-1.7,2.3-3.9
	c0.1-0.6,0.2-0.8,0.6-0.8c0.4,0,0.5,0.7,0.5,1.2c0,1.2-0.4,4.7-0.7,5.8c-0.4,1.4-0.9,1.4-2.9,1.4c-4.1,0-7.3-0.1-10-0.2
	c-2.6-0.1-4.7-0.1-6.3-0.1c-0.6,0-1.8,0.1-3.1,0.1c-1.3,0.1-2.6,0.1-3.8,0.1c-0.7,0-1-0.2-1-0.6c0-0.2,0.2-0.6,0.9-0.6
	c0.8,0,1.4-0.1,1.9-0.2c1.1-0.2,1.4-1.2,1.6-2.8c0.2-2.2,0.2-6.3,0.2-11.2V95.8z"/>
<path class="st1" d="M252.1,169c0,4.5,0,8.1,0.2,10.1c0.1,1.4,0.4,2.4,1.8,2.6c0.7,0.1,1.7,0.2,2.4,0.2c0.6,0,0.8,0.1,0.8,0.4
	c0,0.3-0.3,0.5-1,0.5c-3,0-5.9-0.1-7.2-0.1c-1.2,0-4.2,0.1-6,0.1c-0.7,0-1-0.1-1-0.5c0-0.2,0.2-0.4,0.7-0.4c0.7,0,1.3-0.1,1.7-0.2
	c0.9-0.2,1.2-1.2,1.4-2.6c0.2-2,0.2-5.5,0.2-10.1v-8.3c0-7.2,0-8.5-0.1-10c-0.1-1.6-0.5-2.4-2-2.7c-0.4-0.1-1.2-0.1-1.8-0.1
	c-0.5,0-0.8-0.1-0.8-0.4c0-0.4,0.4-0.5,1.1-0.5c1.2,0,2.6,0,3.8,0c1.2,0,2.3,0.1,3,0.1c1.8,0,11.4,0,12.5,0c0.9,0,1.5,0,1.9-0.2
	c0.3-0.1,0.5-0.3,0.8-0.3c0.2,0,0.3,0.2,0.3,0.4c0,0.3-0.2,0.9-0.4,2.1c0,0.5-0.1,3.3-0.2,3.8c0,0.4-0.1,0.7-0.5,0.7
	c-0.3,0-0.4-0.2-0.5-0.8c0-0.4,0-1.1-0.3-1.8s-1.3-1.4-3.1-1.4l-7.3-0.1c-0.3,0-0.4,0.1-0.4,0.7V162c0,0.3,0,0.4,0.3,0.4h6
	c0.8,0,1.5,0,2.1,0c0.9,0,1.6-0.2,2-0.9c0.2-0.3,0.3-0.5,0.6-0.5c0.2,0,0.3,0.1,0.3,0.4c0,0.3-0.2,1.5-0.4,2.9
	c-0.1,0.9-0.2,3.1-0.2,3.5s0,0.9-0.5,0.9c-0.3,0-0.4-0.3-0.4-0.7c0-0.3-0.1-0.9-0.3-1.5c-0.2-0.7-0.9-1.5-2.4-1.7
	c-1.2-0.1-6.2-0.1-7-0.1c-0.2,0-0.3,0.1-0.3,0.4v3.9H252.1z"/>
<path class="st1" d="M273.1,172.6c-0.2,0-0.3,0-0.4,0.3l-2.2,5.4c-0.4,1-0.6,2-0.6,2.5c0,0.7,0.4,1.1,1.7,1.1h0.6
	c0.5,0,0.6,0.2,0.6,0.4c0,0.3-0.2,0.4-0.7,0.4c-1.4,0-3.3-0.1-4.6-0.1c-0.4,0-2.6,0.1-4.8,0.1c-0.5,0-0.8-0.1-0.8-0.4
	c0-0.2,0.1-0.4,0.5-0.4s0.8,0,1.2,0c1.9-0.3,2.6-1.5,3.4-3.5l10.9-25.3c0.5-1.1,0.8-1.6,1.2-1.6c0.6,0,0.8,0.4,1.2,1.3
	c1,2.2,7.9,18.7,10.6,24.8c1.6,3.6,2.8,4.2,3.5,4.3c0.6,0.1,1.1,0.1,1.6,0.1c0.4,0,0.6,0.1,0.6,0.4c0,0.3-0.2,0.4-1.8,0.4
	c-1.5,0-4.5,0-8-0.1c-0.8,0-1.2,0-1.2-0.3c0-0.2,0.1-0.4,0.5-0.4c0.3,0,0.6-0.4,0.4-0.9l-3.2-8.1c-0.1-0.2-0.2-0.3-0.4-0.3
	L273.1,172.6L273.1,172.6z M282,170.4c0.2,0,0.2-0.1,0.2-0.2l-3.9-10.2c0-0.1-0.1-0.4-0.2-0.4s-0.2,0.2-0.2,0.4l-4,10.2
	c-0.1,0.2,0,0.3,0.1,0.3h8V170.4z"/>
<path class="st1" d="M300.7,164c0-6.1,0-7.2,0-8.5c-0.1-1.4-0.5-1.8-1.8-2.2c-0.3-0.1-1-0.1-1.6-0.1c-0.4,0-0.7-0.1-0.7-0.4
	c0-0.3,0.3-0.4,0.9-0.4c2.2,0,4.8,0.1,5.7,0.1c1.4,0,5.2-0.1,6.5-0.1c2.6,0,5.7,0.2,7.9,1.7c1.2,0.8,2.9,2.8,2.9,5.5
	c0,3-1.7,5.6-5.8,8.9c3.7,4.5,6.6,8.2,9.1,10.7c2.3,2.3,3.8,2.5,4.4,2.6c0.4,0.1,0.7,0.1,1,0.1s0.5,0.2,0.5,0.4
	c0,0.3-0.3,0.4-0.8,0.4h-4c-2.3,0-3.4-0.2-4.5-0.8c-1.8-0.9-3.4-2.8-5.7-5.9c-1.7-2.2-3.4-4.9-3.9-5.5c-0.2-0.2-0.5-0.3-0.8-0.3
	l-3.7-0.1c-0.2,0-0.3,0.1-0.3,0.3v0.6c0,3.7,0,6.9,0.2,8.6c0.1,1.2,0.3,1.9,1.6,2.1c0.6,0.1,1.5,0.1,2,0.1c0.3,0,0.5,0.2,0.5,0.4
	c0,0.3-0.3,0.4-0.8,0.4c-2.4,0-5.9-0.1-6.5-0.1c-0.8,0-3.4,0.1-5.1,0.1c-0.5,0-0.8-0.1-0.8-0.4c0-0.2,0.1-0.4,0.7-0.4s1.1,0,1.5-0.1
	c0.8-0.2,1.1-0.9,1.2-2.1c0.2-1.7,0.2-4.9,0.2-8.6L300.7,164L300.7,164z M305.9,167.1c0,0.4,0.1,0.6,0.4,0.7
	c0.9,0.3,2.1,0.4,3.2,0.4c1.7,0,2.2-0.1,2.9-0.7c1.3-0.9,2.7-2.6,2.7-6c0-5.7-3.9-7.1-6.3-7.1c-1,0-2,0-2.5,0.1
	c-0.3,0.1-0.4,0.2-0.4,0.6L305.9,167.1L305.9,167.1z"/>
<path class="st1" d="M334.1,152.5c0.1-0.7,0.5-1,0.8-1c0.4,0,0.7,0.2,1.3,1.3l11.1,22.4l11.1-22.7c0.3-0.7,0.7-1,1.1-1
	c0.3,0,0.8,0.4,0.9,1.3l3.8,24.8c0.4,2.5,0.8,3.6,2,4c1.2,0.3,1.8,0.4,2.4,0.4c0.4,0,0.7,0.1,0.7,0.4c0,0.3-0.5,0.5-1.1,0.5
	c-1,0-6.9-0.2-8.6-0.3c-1,0-1.2-0.2-1.2-0.5c0-0.2,0.2-0.3,0.5-0.4c0.2-0.1,0.3-0.6,0.2-1.7l-2.3-17.4h-0.1l-8.9,18
	c-0.9,1.9-1.2,2.3-1.7,2.3s-1-0.8-1.7-2c-1-1.8-4.3-8-4.8-9.1c-0.3-0.8-2.8-5.8-4.2-8.6h-0.1l-2,15.7c-0.1,0.7-0.1,1.2-0.1,1.9
	c0,0.8,0.6,1,1.3,1.2c0.7,0.1,1.1,0.2,1.5,0.2s0.7,0.2,0.7,0.4c0,0.4-0.4,0.5-1,0.5c-1.7,0-3.6-0.1-4.4-0.1s-2.8,0.1-4.1,0.1
	c-0.4,0-0.8-0.1-0.8-0.5c0-0.2,0.2-0.4,0.7-0.4c0.3,0,0.6,0,1.3-0.1c1.1-0.1,1.5-1.8,1.7-3.1L334.1,152.5z"/>
<path class="st1" d="M391,178.2c-4.6-4.1-5.9-9.4-5.9-14c0-3.2,1-8.8,5.5-13c3.4-3.1,7.9-5,14.9-5c2.9,0,4.7,0.2,6.8,0.5
	c1.8,0.2,3.3,0.7,4.7,0.8c0.5,0,0.7,0.3,0.7,0.6c0,0.4-0.1,0.9-0.2,2.6c-0.1,1.6,0,4.2-0.1,5.1c0,0.7-0.1,1.1-0.6,1.1
	c-0.4,0-0.5-0.4-0.5-1c0-1.5-0.7-3.1-1.8-4.4c-1.6-1.7-5.2-2.9-9.6-2.9c-4.1,0-6.8,1-8.9,2.9c-3.4,3.2-4.3,7.7-4.3,12.2
	c0,11.3,8.5,16.8,14.9,16.8c4.2,0,6.8-0.5,8.6-2.6c0.8-0.9,1.4-2.3,1.6-3.1c0.1-0.8,0.2-0.9,0.6-0.9c0.3,0,0.4,0.3,0.4,0.7
	c0,0.6-0.6,4.7-1,6.3c-0.2,0.8-0.4,1-1.2,1.4c-1.9,0.8-5.5,1.1-8.5,1.1C400.7,183.4,395.3,182,391,178.2"/>
<path class="st1" d="M426.7,164c0-6.1,0-7.2,0-8.5c-0.1-1.4-0.5-1.8-1.8-2.2c-0.3-0.1-1-0.1-1.7-0.1c-0.4,0-0.7-0.1-0.7-0.4
	c0-0.3,0.3-0.4,0.9-0.4c2.2,0,4.8,0.1,5.7,0.1c1.4,0,5.2-0.1,6.5-0.1c2.6,0,5.7,0.2,7.9,1.7c1.2,0.8,2.9,2.8,2.9,5.5
	c0,3-1.7,5.6-5.8,8.9c3.7,4.5,6.6,8.2,9.1,10.7c2.3,2.3,3.8,2.5,4.4,2.6c0.4,0.1,0.7,0.1,1,0.1s0.5,0.2,0.5,0.4
	c0,0.3-0.3,0.4-0.8,0.4h-4c-2.3,0-3.4-0.2-4.5-0.8c-1.8-0.9-3.4-2.8-5.7-5.9c-1.7-2.2-3.4-4.9-3.9-5.5c-0.2-0.2-0.5-0.3-0.8-0.3
	l-3.7-0.1c-0.2,0-0.3,0.1-0.3,0.3v0.6c0,3.7,0,6.9,0.2,8.6c0.1,1.2,0.3,1.9,1.6,2.1c0.6,0.1,1.5,0.1,2,0.1c0.3,0,0.5,0.2,0.5,0.4
	c0,0.3-0.3,0.4-0.9,0.4c-2.4,0-5.9-0.1-6.5-0.1c-0.8,0-3.4,0.1-5.1,0.1c-0.5,0-0.8-0.1-0.8-0.4c0-0.2,0.1-0.4,0.7-0.4s1.1,0,1.5-0.1
	c0.8-0.2,1.1-0.9,1.2-2.1c0.2-1.7,0.2-4.9,0.2-8.6v-7H426.7z M432,167.1c0,0.4,0.1,0.6,0.4,0.7c0.9,0.3,2.1,0.4,3.2,0.4
	c1.7,0,2.2-0.1,2.9-0.7c1.3-0.9,2.7-2.6,2.7-6c0-5.7-3.9-7.1-6.3-7.1c-1,0-2,0-2.5,0.1c-0.3,0.1-0.4,0.2-0.4,0.6L432,167.1
	L432,167.1z"/>
<path class="st1" d="M458.6,164c0-6.1,0-7.2,0-8.5c-0.1-1.4-0.5-1.8-1.8-2.2c-0.3-0.1-1-0.1-1.7-0.1c-0.4,0-0.7-0.1-0.7-0.4
	c0-0.3,0.3-0.4,0.9-0.4c2.2,0,4.8,0.1,6,0.1c1.3,0,10.5,0,11.3,0s1.4-0.2,1.7-0.2c0.2,0,0.5-0.2,0.7-0.2s0.3,0.2,0.3,0.4
	c0,0.3-0.2,0.8-0.3,2.6c0,0.4-0.1,2.2-0.2,2.6c0,0.2-0.1,0.7-0.5,0.7c-0.3,0-0.3-0.2-0.3-0.5s0-1-0.3-1.5c-0.3-0.7-0.7-1.3-2.7-1.5
	c-0.7-0.1-5.7-0.2-6.5-0.2c-0.2,0-0.3,0.1-0.3,0.4v9.9c0,0.2,0,0.4,0.3,0.4c0.9,0,6.3,0,7.3-0.1s1.6-0.2,2-0.6
	c0.3-0.3,0.5-0.5,0.7-0.5s0.3,0.2,0.3,0.4s-0.1,0.9-0.3,2.9c-0.1,0.8-0.2,2.4-0.2,2.7s0,0.9-0.4,0.9c-0.3,0-0.4-0.1-0.4-0.3
	c0-0.4,0-0.9-0.1-1.5c-0.2-0.8-0.8-1.4-2.3-1.6c-0.8-0.1-5.5-0.2-6.5-0.2c-0.2,0-0.2,0.2-0.2,0.4v3.2c0,1.4,0,4.8,0,6
	c0.1,2.7,1.4,3.4,5.6,3.4c1.1,0,2.8,0,3.9-0.5c1-0.5,1.5-1.3,1.8-3c0.1-0.4,0.2-0.6,0.5-0.6s0.4,0.5,0.4,0.9c0,0.9-0.3,3.6-0.6,4.4
	c-0.3,1-0.7,1-2.2,1c-3.1,0-5.6,0-7.6-0.1c-2,0-3.6-0.1-4.8-0.1c-0.5,0-1.4,0-2.4,0s-2,0.1-2.9,0.1c-0.5,0-0.8-0.1-0.8-0.4
	c0-0.2,0.1-0.4,0.7-0.4s1.1,0,1.5-0.1c0.8-0.2,1.1-0.9,1.2-2.1c0.2-1.7,0.2-4.9,0.2-8.6v-7H458.6z"/>
<path class="st1" d="M484.4,164c0-6.1,0-7.2,0-8.5c-0.1-1.4-0.5-1.8-1.8-2.2c-0.3-0.1-1-0.1-1.7-0.1c-0.4,0-0.7-0.1-0.7-0.4
	c0-0.3,0.3-0.4,0.9-0.4c2.2,0,4.8,0.1,6,0.1c1.3,0,4.2-0.1,6.7-0.1c5.2,0,12.2,0,16.7,4.6c2.1,2.1,3.9,5.4,3.9,10.2
	c0,5.1-2.2,8.9-4.5,11.2c-1.9,1.9-6.3,4.7-13.9,4.7c-1.5,0-3.3-0.1-5-0.2c-1.7-0.1-3.2-0.2-4.2-0.2c-0.5,0-1.4,0-2.4,0
	s-2,0.1-2.9,0.1c-0.5,0-0.8-0.1-0.8-0.4c0-0.2,0.1-0.4,0.7-0.4c0.6,0,1.1,0,1.5-0.1c0.8-0.2,1.1-0.9,1.2-2.1
	c0.2-1.7,0.2-4.9,0.2-8.6L484.4,164L484.4,164z M489.9,168.4c0,4.3,0,7.3,0.1,8.1c0,1,0.1,2.4,0.5,2.8c0.5,0.8,2.2,1.6,5.4,1.6
	c3.8,0,6.6-0.7,9.1-2.7c2.7-2.2,3.5-5.8,3.5-10c0-5.1-2-8.4-3.9-10c-3.8-3.4-8.4-3.8-11.6-3.8c-0.9,0-2.2,0.1-2.5,0.3
	c-0.4,0.1-0.5,0.3-0.5,0.8c0,1.4,0,4.7,0,7.9L489.9,168.4L489.9,168.4z"/>
<path class="st1" d="M522.6,164c0-6.1,0-7.2,0-8.5c-0.1-1.4-0.5-1.8-1.4-2.1c-0.5-0.1-1-0.2-1.5-0.2c-0.4,0-0.7-0.1-0.7-0.5
	c0-0.2,0.3-0.3,1-0.3c1.6,0,4.4,0.1,5.6,0.1c1,0,3.7-0.1,5.3-0.1c0.5,0,0.9,0.1,0.9,0.3c0,0.4-0.2,0.5-0.7,0.5c-0.4,0-0.8,0-1.2,0.1
	c-1.1,0.2-1.5,0.8-1.6,2.2c-0.1,1.3-0.1,2.4-0.1,8.5v7.1c0,3.9,0,7.1,0.2,8.8c0.1,1.1,0.4,1.7,1.7,1.9c0.6,0.1,1.5,0.1,2.1,0.1
	c0.5,0,0.7,0.2,0.7,0.4c0,0.3-0.3,0.4-0.8,0.4c-2.7,0-5.6-0.1-6.7-0.1c-0.9,0-3.8,0.1-5.4,0.1c-0.5,0-0.8-0.1-0.8-0.4
	c0-0.2,0.1-0.4,0.7-0.4c0.6,0,1.1,0,1.5-0.1c0.8-0.2,1.1-0.8,1.2-1.9c0.2-1.7,0.2-4.9,0.2-8.7V164H522.6z"/>
<path class="st1" d="M546.9,154.8l-6.2,0.1c-2.4,0-3.4,0.3-4,1.2c-0.4,0.6-0.6,1.1-0.7,1.4c-0.1,0.3-0.2,0.5-0.5,0.5
	s-0.4-0.2-0.4-0.7c0-0.7,0.8-4.5,0.9-4.9c0.1-0.5,0.2-0.8,0.5-0.8s0.8,0.3,1.8,0.5c1.2,0.1,2.8,0.2,4.2,0.2h16.9
	c1.3,0,2.2-0.1,2.8-0.2c0.7-0.1,1-0.2,1.1-0.2c0.3,0,0.3,0.2,0.3,0.9c0,0.8-0.1,3.8-0.1,4.9c0,0.4-0.1,0.7-0.4,0.7
	c-0.3,0-0.4-0.2-0.5-0.8v-0.4c-0.1-1-1.2-2.3-4.9-2.3l-5.2-0.1v16.3c0,3.7,0,6.9,0.2,8.6c0.1,1.1,0.4,1.9,1.6,2.1
	c0.6,0.1,1.5,0.1,2.1,0.1c0.5,0,0.7,0.2,0.7,0.4c0,0.3-0.3,0.4-0.8,0.4c-2.7,0-5.5-0.1-6.7-0.1c-0.9,0-3.8,0.1-5.4,0.1
	c-0.5,0-0.8-0.1-0.8-0.4c0-0.2,0.1-0.4,0.7-0.4c0.6,0,1.1,0,1.5-0.1c0.8-0.2,1.1-0.9,1.2-2.1c0.2-1.7,0.2-4.9,0.2-8.6L546.9,154.8
	L546.9,154.8z"/>
<rect x="167.7" y="132.8" class="st1" width="462.7" height="1.8"/>
<path class="st2" d="M629.5,54.9c0,0-17.1-3.8-45.2-17.9c-13.9-7-14.3-17.1-29.4-13c-8.2,2.2-15.2,6.5-34.8,15.2
	c-3.5,1.6-7.8,3-12.4,4.4c-3.8-1.6-8.3-4.1-15.4-5.2c-4.6-0.7-8.1-0.3-10.7-0.3c-4.7-1.3-6.5-2.6-10.5-4.9
	c-10-5.8-22.1-11.1-33.7-12.5C420,18.5,390.6-1,384.1,0c-21.8,3.7-28.2,18.1-44.6,26.1c-11.1,5.4-20.9,9.7-28.8,13
	c-0.8-0.3-1.6-0.7-2.3-1c-14.1-6.5-14.3-17.1-29.4-13c-8.2,2.2-15.3,6.5-34.9,15.2s-63,14.7-63,14.7h21.3c18.9-1,45.8-3.6,55.8-9.2
	c18.9-10.7,24.5-4.6,32.7,0.9c-0.3,0.1-0.6,0.2-0.6,0.2s0.3,0,0.6-0.1c2.6,1.8,5.5,3.5,9.2,4.5c14.2,3.8,53.8,3.8,53.8,3.8
	s-20.2-3.8-38.5-13.8c7-1.7,14.4-3.5,20.7-5.3c5.3-1.5,11.2-2.9,14.8-4.2c5.3-1.9,24.7-21.3,52.6-5.5c5.1,2.9,31,8.8,57.7,13.6
	c-1.5,0.2-3.3,0.4-6.4,0.7c-7.1,0.8-17.9,3.4-27.4,5c45.9,2.8,48.1-3.1,70.6,0.9c-19,4.9-41.8,8.6-41.8,8.6s55.2,3,77.9-10.3
	c24.8-14.6,27.8-1.8,41.9,5.4c5,2.6,22.7,4.3,35.8,4.9h17.7V54.9z"/>
</svg>
